<svg width="129" height="37" viewBox="0 0 129 37" fill="none" xmlns="http://www.w3.org/2000/svg">
<circle cx="18.1407" cy="18.1407" r="17.6407" fill="#3893C1" stroke="#3893C1"/>
<circle cx="64.5801" cy="18.1407" r="17.6407" stroke="#3893C1"/>
<circle cx="110.858" cy="18.1407" r="17.6407" stroke="#3893C1"/>
<path d="M110.908 11.7373C113.061 11.7373 113.316 11.7453 114.166 11.7843C115.045 11.8246 115.95 12.0248 116.59 12.6651C117.237 13.3115 117.431 14.2078 117.471 15.0893C117.51 15.9392 117.518 16.1945 117.518 18.3472C117.518 20.4999 117.51 20.7552 117.471 21.6051C117.431 22.4792 117.227 23.393 116.59 24.0293C115.944 24.6756 115.048 24.8698 114.166 24.9101C113.316 24.949 113.061 24.9571 110.908 24.9571C108.756 24.9571 108.5 24.949 107.65 24.9101C106.783 24.8704 105.857 24.6608 105.226 24.0293C104.583 23.3863 104.386 22.4812 104.345 21.6051C104.306 20.7552 104.298 20.4999 104.298 18.3472C104.298 16.1945 104.306 15.9392 104.345 15.0893C104.385 14.2185 104.592 13.2994 105.226 12.6651C105.871 12.0201 106.771 11.8246 107.65 11.7843C108.5 11.7453 108.756 11.7373 110.908 11.7373ZM110.908 10.2847C108.719 10.2847 108.444 10.2941 107.584 10.333C106.337 10.3902 105.1 10.7368 104.199 11.6378C103.295 12.5422 102.951 13.7771 102.894 15.0227C102.855 15.8827 102.846 16.1575 102.846 18.3472C102.846 20.5368 102.855 20.8116 102.894 21.6716C102.951 22.9166 103.299 24.1576 104.199 25.0566C105.103 25.9602 106.339 26.3042 107.584 26.3613C108.444 26.4003 108.719 26.4097 110.908 26.4097C113.098 26.4097 113.373 26.4003 114.233 26.3613C115.478 26.3042 116.717 25.9569 117.618 25.0566C118.523 24.1515 118.865 22.9173 118.922 21.6716C118.961 20.8116 118.971 20.5368 118.971 18.3472C118.971 16.1575 118.961 15.8827 118.922 15.0227C118.865 13.7764 118.518 12.5381 117.618 11.6378C116.715 10.7355 115.475 10.3895 114.233 10.333C113.373 10.2941 113.098 10.2847 110.908 10.2847Z" fill="#3893C1"/>
<path d="M110.909 14.2114C108.622 14.2114 106.769 16.0651 106.769 18.3515C106.769 20.6379 108.622 22.4916 110.909 22.4916C113.195 22.4916 115.049 20.6379 115.049 18.3515C115.049 16.0651 113.195 14.2114 110.909 14.2114ZM110.909 21.039C109.424 21.039 108.221 19.8357 108.221 18.3515C108.221 16.8674 109.424 15.664 110.909 15.664C112.393 15.664 113.596 16.8674 113.596 18.3515C113.596 19.8357 112.393 21.039 110.909 21.039Z" fill="#3893C1"/>
<path d="M115.215 15.0126C115.749 15.0126 116.182 14.5795 116.182 14.0451C116.182 13.5108 115.749 13.0776 115.215 13.0776C114.68 13.0776 114.247 13.5108 114.247 14.0451C114.247 14.5795 114.68 15.0126 115.215 15.0126Z" fill="#3893C1"/>
<path d="M14.3668 18.6668H16.1164V25.9436C16.1164 26.0872 16.2316 26.2037 16.3738 26.2037H19.3402C19.4824 26.2037 19.5977 26.0872 19.5977 25.9436V18.7011H21.6089C21.7397 18.7011 21.8497 18.6019 21.8647 18.4707L22.1701 15.7918C22.1785 15.7181 22.1554 15.6442 22.1066 15.589C22.0578 15.5336 21.9878 15.5019 21.9145 15.5019H19.5978V13.8226C19.5978 13.3164 19.8676 13.0597 20.3997 13.0597C20.4756 13.0597 21.9145 13.0597 21.9145 13.0597C22.0567 13.0597 22.1719 12.9433 22.1719 12.7996V10.3406C22.1719 10.197 22.0567 10.0805 21.9145 10.0805H19.8269C19.8122 10.0798 19.7795 10.0786 19.7313 10.0786C19.3691 10.0786 18.1101 10.1504 17.1156 11.0748C16.0137 12.0991 16.1669 13.3255 16.2035 13.5382V15.5019H14.3668C14.2246 15.5019 14.1094 15.6183 14.1094 15.762V18.4067C14.1094 18.5503 14.2246 18.6668 14.3668 18.6668Z" fill="white"/>
<g clip-path="url(#clip0_336_13753)">
<path d="M72.5594 26.1227L72.5634 26.122V20.2673C72.5634 17.4031 71.9468 15.1968 68.5984 15.1968C66.9887 15.1968 65.9085 16.0801 65.4675 16.9175H65.4209V15.4642H62.2461V26.122H65.5519V20.8446C65.5519 19.4551 65.8153 18.1115 67.5361 18.1115C69.2316 18.1115 69.2569 19.6972 69.2569 20.9338V26.1227H72.5594Z" fill="#3893C1"/>
<path d="M56.8633 15.4648H60.1731V26.1227H56.8633V15.4648Z" fill="#3893C1"/>
<path d="M58.5166 10.1587C57.4583 10.1587 56.5996 11.0174 56.5996 12.0757C56.5996 13.1339 57.4583 14.0106 58.5166 14.0106C59.5749 14.0106 60.4336 13.1339 60.4336 12.0757C60.4329 11.0174 59.5742 10.1587 58.5166 10.1587Z" fill="#3893C1"/>
</g>
<defs>
<clipPath id="clip0_336_13753">
<rect width="15.9638" height="15.9638" fill="white" transform="translate(56.5996 10.1587)"/>
</clipPath>
</defs>
</svg>
