<svg width="1197" height="232" viewBox="0 0 1197 232" fill="none" xmlns="http://www.w3.org/2000/svg">
<path d="M0.780001 149.88C0.780001 131.9 4.39667 116.297 11.63 103.07C18.8633 89.8433 28.7833 79.6133 41.39 72.38C54.2033 65.1467 68.8767 61.53 85.41 61.53C94.9167 61.53 103.7 62.77 111.76 65.25C119.82 67.73 127.26 70.83 134.08 74.55L117.34 111.44C113.413 108.547 108.763 106.273 103.39 104.62C98.0167 102.76 92.4367 101.83 86.65 101.83C79.4167 101.83 72.8033 103.483 66.81 106.79C61.0233 110.097 56.3733 115.16 52.86 121.98C49.5533 128.8 47.9 137.583 47.9 148.33C47.9 157.63 49.6567 165.483 53.17 171.89C56.6833 178.09 61.4367 182.843 67.43 186.15C73.63 189.25 80.6567 190.8 88.51 190.8C93.8833 190.8 99.2567 189.973 104.63 188.32C110.003 186.667 114.653 184.497 118.58 181.81L135.32 218.7C128.5 222.42 120.543 225.52 111.45 228C102.563 230.48 92.6433 231.72 81.69 231.72C65.57 231.72 51.4133 228.413 39.22 221.8C27.0267 214.98 17.52 205.473 10.7 193.28C4.08667 180.88 0.780001 166.413 0.780001 149.88ZM154.872 146.78C154.872 129.213 158.282 114.127 165.102 101.52C171.922 88.7067 181.325 78.89 193.312 72.07C205.505 65.0433 219.352 61.53 234.852 61.53C250.558 61.53 264.405 65.0433 276.392 72.07C288.378 78.89 297.782 88.7067 304.602 101.52C311.422 114.127 314.832 129.213 314.832 146.78C314.832 164.14 311.422 179.227 304.602 192.04C297.782 204.647 288.378 214.463 276.392 221.49C264.405 228.31 250.558 231.72 234.852 231.72C219.352 231.72 205.505 228.31 193.312 221.49C181.325 214.463 171.922 204.647 165.102 192.04C158.282 179.227 154.872 164.14 154.872 146.78ZM201.992 146.78C201.992 157.733 203.335 166.723 206.022 173.75C208.708 180.777 212.532 185.943 217.492 189.25C222.452 192.557 228.238 194.21 234.852 194.21C241.465 194.21 247.252 192.557 252.212 189.25C257.172 185.943 260.995 180.777 263.682 173.75C266.368 166.723 267.712 157.733 267.712 146.78C267.712 135.827 266.368 126.837 263.682 119.81C260.995 112.783 257.172 107.617 252.212 104.31C247.252 100.797 241.465 99.04 234.852 99.04C228.238 99.04 222.452 100.797 217.492 104.31C212.532 107.617 208.708 112.783 206.022 119.81C203.335 126.837 201.992 135.827 201.992 146.78ZM345.149 65.25H390.409L396.299 96.25V228H349.799V104C349.799 99.66 349.592 95.8367 349.179 92.53C348.972 89.0167 348.455 84.9867 347.629 80.44L345.149 65.25ZM391.649 121.67V90.98C398.055 82.3 405.599 75.2733 414.279 69.9C423.165 64.32 433.189 61.53 444.349 61.53C454.062 61.53 463.259 64.01 471.939 68.97C480.619 73.7233 487.646 80.9567 493.019 90.67C498.599 100.177 501.389 112.267 501.389 126.94V228H454.889V134.07C454.889 127.25 453.649 121.67 451.169 117.33C448.896 112.783 445.692 109.477 441.559 107.41C437.425 105.343 432.672 104.31 427.299 104.31C421.099 104.31 414.795 105.757 408.389 108.65C401.982 111.543 396.402 115.883 391.649 121.67ZM541.623 65.25H586.883L592.773 96.25V228H546.273V104C546.273 99.66 546.067 95.8367 545.653 92.53C545.447 89.0167 544.93 84.9867 544.103 80.44L541.623 65.25ZM588.123 121.67V90.98C594.53 82.3 602.073 75.2733 610.753 69.9C619.64 64.32 629.663 61.53 640.823 61.53C650.537 61.53 659.733 64.01 668.413 68.97C677.093 73.7233 684.12 80.9567 689.493 90.67C695.073 100.177 697.863 112.267 697.863 126.94V228H651.363V134.07C651.363 127.25 650.123 121.67 647.643 117.33C645.37 112.783 642.167 109.477 638.033 107.41C633.9 105.343 629.147 104.31 623.773 104.31C617.573 104.31 611.27 105.757 604.863 108.65C598.457 111.543 592.877 115.883 588.123 121.67ZM731.278 149.88C731.278 132.107 734.688 116.607 741.508 103.38C748.328 90.1533 757.731 79.9233 769.718 72.69C781.705 65.25 795.448 61.53 810.948 61.53C825.828 61.53 838.641 64.8367 849.388 71.45C860.341 78.0633 868.711 87.4667 874.498 99.66C880.491 111.647 883.488 126.113 883.488 143.06C883.488 146.573 883.281 149.88 882.868 152.98C882.661 156.08 882.351 158.56 881.938 160.42H764.448V130.97H848.458L838.848 143.68C838.848 127.767 836.265 116.193 831.098 108.96C826.138 101.52 819.111 97.8 810.018 97.8C803.611 97.8 797.825 99.4533 792.658 102.76C787.698 106.067 783.771 111.337 780.878 118.57C777.985 125.803 776.538 135.207 776.538 146.78C776.538 157.733 778.501 166.723 782.428 173.75C786.355 180.57 791.728 185.633 798.548 188.94C805.575 192.247 813.738 193.9 823.038 193.9C829.238 193.9 835.645 193.073 842.258 191.42C849.078 189.56 855.071 187.287 860.238 184.6L872.948 219.32C865.508 222.627 857.138 225.52 847.838 228C838.745 230.48 828.721 231.72 817.768 231.72C799.581 231.72 783.978 228.31 770.958 221.49C758.145 214.67 748.328 205.163 741.508 192.97C734.688 180.57 731.278 166.207 731.278 149.88ZM917.729 228V6.34999L964.229 0.149996V228H917.729ZM946.869 196.69V143.37L1011.04 65.25H1068.7L946.869 196.69ZM969.809 144.61L999.259 116.09L1072.73 228H1019.72L969.809 144.61ZM1077.44 100.9V65.25H1194.93V100.9H1077.44ZM1105.34 171.58V29.29L1151.84 23.09V165.69C1151.84 174.577 1153.6 180.777 1157.11 184.29C1160.62 187.803 1165.79 189.56 1172.61 189.56C1175.5 189.56 1178.6 189.25 1181.91 188.63C1185.42 187.803 1188.94 186.77 1192.45 185.53L1197.41 225.52C1192.24 227.38 1186.66 228.827 1180.67 229.86C1174.68 231.1 1168.68 231.72 1162.69 231.72C1150.91 231.72 1140.68 229.55 1132 225.21C1123.53 220.663 1116.91 213.947 1112.16 205.06C1107.61 196.173 1105.34 185.013 1105.34 171.58Z" fill="url(#paint0_linear_336_10296)"/>
<defs>
<linearGradient id="paint0_linear_336_10296" x1="598" y1="-65" x2="598" y2="307" gradientUnits="userSpaceOnUse">
<stop stop-color="#21689F" stop-opacity="0.16"/>
<stop offset="1" stop-color="#2A8FC2" stop-opacity="0"/>
</linearGradient>
</defs>
</svg>
